<svg width="24" height="23" viewBox="0 0 24 23" fill="none" xmlns="http://www.w3.org/2000/svg">
<path d="M7.2 18.0978C5.88 18.0978 4.812 19.0779 4.812 20.2758C4.812 21.4736 5.88 22.4537 7.2 22.4537C8.52 22.4537 9.6 21.4736 9.6 20.2758C9.6 19.0779 8.52 18.0978 7.2 18.0978ZM0 0.674561V2.85247H2.4L6.72 11.1176L5.1 13.7856C4.908 14.0905 4.8 14.4498 4.8 14.831C4.8 16.0288 5.88 17.0089 7.2 17.0089H21.6V14.831H7.704C7.536 14.831 7.404 14.7112 7.404 14.5587L7.44 14.4281L8.52 12.6531H17.46C18.36 12.6531 19.152 12.2066 19.56 11.5314L23.856 4.46412C23.952 4.31167 24 4.12655 24 3.94143C24 3.3425 23.46 2.85247 22.8 2.85247H5.052L3.924 0.674561H0ZM19.2 18.0978C17.88 18.0978 16.812 19.0779 16.812 20.2758C16.812 21.4736 17.88 22.4537 19.2 22.4537C20.52 22.4537 21.6 21.4736 21.6 20.2758C21.6 19.0779 20.52 18.0978 19.2 18.0978Z" fill="black"/>
</svg>
