<svg width="48" height="44" viewBox="0 0 48 44" fill="none" xmlns="http://www.w3.org/2000/svg">
<path d="M14.4 35.1454C11.76 35.1454 9.624 37.1055 9.624 39.5012C9.624 41.8969 11.76 43.857 14.4 43.857C17.04 43.857 19.2 41.8969 19.2 39.5012C19.2 37.1055 17.04 35.1454 14.4 35.1454ZM0 0.298828V4.65465H4.8L13.44 21.185L10.2 26.5209C9.816 27.1307 9.6 27.8494 9.6 28.6117C9.6 31.0074 11.76 32.9675 14.4 32.9675H43.2V28.6117H15.408C15.072 28.6117 14.808 28.3721 14.808 28.0672L14.88 27.8058L17.04 24.2558H34.92C36.72 24.2558 38.304 23.3629 39.12 22.0126L47.712 7.87796C47.904 7.57305 48 7.2028 48 6.83256C48 5.63471 46.92 4.65465 45.6 4.65465H10.104L7.848 0.298828H0ZM38.4 35.1454C35.76 35.1454 33.624 37.1055 33.624 39.5012C33.624 41.8969 35.76 43.857 38.4 43.857C41.04 43.857 43.2 41.8969 43.2 39.5012C43.2 37.1055 41.04 35.1454 38.4 35.1454Z" fill="black"/>
</svg>
