<svg width="48" height="44" viewBox="0 0 48 44" fill="none" xmlns="http://www.w3.org/2000/svg">
<path d="M34.3053 27.7802H32.1372L31.3688 27.1077C34.0583 24.2686 35.6775 20.5827 35.6775 16.5731C35.6775 7.63232 27.6913 0.385071 17.8388 0.385071C7.98628 0.385071 0 7.63232 0 16.5731C0 25.5138 7.98628 32.7611 17.8388 32.7611C22.2573 32.7611 26.319 31.2917 29.4477 28.8511L30.1887 29.5484V31.5159L43.9108 43.9433L48 40.2325L34.3053 27.7802ZM17.8388 27.7802C11.0051 27.7802 5.48885 22.7743 5.48885 16.5731C5.48885 10.3718 11.0051 5.366 17.8388 5.366C24.6724 5.366 30.1887 10.3718 30.1887 16.5731C30.1887 22.7743 24.6724 27.7802 17.8388 27.7802Z" fill="black" fill-opacity="0.4"/>
</svg>
